<svg xmlns="http://www.w3.org/2000/svg" viewBox="0 0 50 50"><path d="M 25 2 C 15.398438 2 7.488281 9.105469 6.1875 18.40625 C 8.886719 15.304688 13.6875 11.300781 19.6875 10 C 20.1875 9.898438 20.804688 10.210938 20.90625 10.8125 C 21.007813 11.3125 20.695313 11.898438 20.09375 12 C 12.195313 13.699219 6.601563 20.585938 6 22.1875 L 6 24 C 6 36.699219 16.601563 48 25 48 C 30.199219 48 36.289063 43.585938 40.1875 37.1875 C 34.488281 41.1875 27.492188 42 27.09375 42 L 27 42 C 26.5 42 26.101563 41.59375 26 41.09375 C 25.898438 40.59375 26.304688 40.101563 26.90625 40 C 27.007813 40 37.398438 38.804688 42.5 32.40625 C 43.5 29.804688 44 26.898438 44 24 L 44 21 C 44 10.5 35.5 2 25 2 Z M 25 16 C 32 16 39 20 39 25 C 39 28.5 35 29 33 29 C 30.101563 29 27.199219 27 25 27 C 22.800781 27 19.898438 29 17 29 C 15 29 11 28.5 11 25 C 11 20 18 16 25 16 Z M 15.8125 20 C 15.359375 20.082031 15.023438 20.460938 14.992188 20.917969 C 14.960938 21.378906 15.25 21.796875 15.6875 21.9375 L 17.59375 22.59375 C 17.230469 22.957031 17 23.449219 17 24 C 17 25.105469 17.894531 26 19 26 C 20.105469 26 21 25.105469 21 24 C 21 23.894531 20.984375 23.789063 20.96875 23.6875 L 21.6875 23.9375 C 22.039063 24.117188 22.460938 24.074219 22.769531 23.828125 C 23.078125 23.582031 23.210938 23.179688 23.113281 22.796875 C 23.015625 22.417969 22.703125 22.128906 22.3125 22.0625 L 16.3125 20.0625 C 16.152344 20 15.980469 19.976563 15.8125 20 Z M 33.84375 20 C 33.789063 20.015625 33.738281 20.039063 33.6875 20.0625 L 27.6875 22.0625 C 27.296875 22.128906 26.984375 22.417969 26.886719 22.796875 C 26.789063 23.179688 26.921875 23.582031 27.230469 23.828125 C 27.539063 24.074219 27.960938 24.117188 28.3125 23.9375 L 29.03125 23.6875 C 29.015625 23.789063 29 23.894531 29 24 C 29 25.105469 29.894531 26 31 26 C 32.105469 26 33 25.105469 33 24 C 33 23.449219 32.769531 22.957031 32.40625 22.59375 L 34.3125 21.9375 C 34.804688 21.773438 35.09375 21.257813 34.96875 20.753906 C 34.847656 20.246094 34.359375 19.917969 33.84375 20 Z M 4.6875 30.09375 C 3.386719 32.09375 2 35.5 2 41 C 2 41.601563 2.398438 42 3 42 C 5.300781 42 6.992188 40.386719 8.09375 38.1875 C 6.59375 35.789063 5.386719 32.992188 4.6875 30.09375 Z M 9.3125 40.09375 C 8.3125 41.695313 7.09375 42.804688 5.59375 43.40625 C 6.09375 44.207031 6.6875 44.6875 6.6875 44.6875 C 6.886719 44.886719 7.105469 45 7.40625 45 C 7.605469 45 7.804688 44.914063 7.90625 44.8125 C 8.007813 44.710938 9.507813 43.699219 10.40625 41.5 C 10.007813 41.101563 9.710938 40.59375 9.3125 40.09375 Z"></path></svg>
